<svg width="667" height="290" viewBox="0 0 667 290" fill="none" xmlns="http://www.w3.org/2000/svg">
<path d="M594.368 116.502L639.677 161.811C644.226 166.361 644.226 173.737 639.677 178.287L635.558 182.406C631.008 186.955 623.632 186.955 619.082 182.406L573.773 137.097L594.368 116.502Z" fill="#1E1E1E"/>
<path d="M39.0049 144.258C33.1332 144.258 28.0071 143.326 23.6267 141.462C19.2462 139.598 15.7977 137.035 13.2813 133.773C10.858 130.418 9.55318 126.503 9.36678 122.03H26.8421C27.0285 124.453 28.1935 126.41 30.3372 127.901C32.574 129.393 35.4633 130.138 39.0049 130.138H45.1563C49.4435 130.138 52.659 129.299 54.8026 127.622C56.9463 125.944 58.0181 123.661 58.0181 120.771C58.0181 118.069 57.0395 115.971 55.0823 114.48C53.2182 112.896 50.2824 111.871 46.2747 111.405L36.7681 110.007C28.0071 108.795 21.5762 106.465 17.4753 103.016C13.3745 99.568 11.324 94.3953 11.324 87.4983C11.324 80.3218 13.7473 74.7763 18.5938 70.8618C23.4402 66.8541 30.5702 64.8503 39.9836 64.8503H45.2961C53.8706 64.8503 60.721 66.7609 65.8471 70.5822C70.9732 74.4035 73.7226 79.5296 74.0954 85.9605H56.6201C56.3405 83.9101 55.1755 82.2324 53.125 80.9276C51.1678 79.6228 48.5581 78.9704 45.2961 78.9704H39.9836C35.9759 78.9704 33.04 79.716 31.176 81.2072C29.4052 82.6052 28.5197 84.7023 28.5197 87.4983C28.5197 90.108 29.312 92.0652 30.8964 93.3701C32.4808 94.5817 35.0439 95.4671 38.5855 96.0263L48.5115 97.4243C57.6453 98.7292 64.3558 101.199 68.6431 104.834C73.0236 108.376 75.2138 113.641 75.2138 120.632C75.2138 128.088 72.6508 133.913 67.5247 138.107C62.4918 142.208 55.0356 144.258 45.1563 144.258H39.0049ZM125.768 144.258C119.244 144.258 113.558 143.047 108.712 140.623C103.959 138.107 100.231 134.612 97.5276 130.138C94.918 125.571 93.6132 120.212 93.6132 114.061V95.0477C93.6132 88.8964 94.918 83.5839 97.5276 79.1102C100.231 74.5433 103.959 71.0482 108.712 68.625C113.558 66.1085 119.244 64.8503 125.768 64.8503C132.385 64.8503 138.07 66.1085 142.824 68.625C147.577 71.0482 151.258 74.5433 153.868 79.1102C156.571 83.5839 157.922 88.8498 157.922 94.9079V114.061C157.922 120.212 156.571 125.571 153.868 130.138C151.258 134.612 147.577 138.107 142.824 140.623C138.07 143.047 132.385 144.258 125.768 144.258ZM125.768 129.02C130.428 129.02 134.016 127.762 136.533 125.245C139.142 122.635 140.447 118.907 140.447 114.061V95.0477C140.447 90.108 139.142 86.3799 136.533 83.8635C134.016 81.347 130.428 80.0888 125.768 80.0888C121.201 80.0888 117.613 81.347 115.003 83.8635C112.393 86.3799 111.089 90.108 111.089 95.0477V114.061C111.089 118.907 112.393 122.635 115.003 125.245C117.613 127.762 121.201 129.02 125.768 129.02ZM209.595 144.398C199.809 144.398 192.119 141.695 186.527 136.289C180.935 130.791 178.139 123.334 178.139 113.921V66.1085H195.615V113.781C195.615 118.721 196.826 122.542 199.249 125.245C201.673 127.855 205.121 129.16 209.595 129.16C213.975 129.16 217.377 127.855 219.8 125.245C222.317 122.542 223.575 118.721 223.575 113.781V66.1085H241.05V113.921C241.05 123.334 238.208 130.791 232.522 136.289C226.837 141.695 219.195 144.398 209.595 144.398ZM264.622 143V66.1085H281.119V80.7878H285.453L280.28 89.7352C280.28 81.4402 282.144 75.1957 285.872 71.0016C289.6 66.8075 295.099 64.7105 302.369 64.7105C310.664 64.7105 317.188 67.2736 321.941 72.3997C326.695 77.5258 329.071 84.6091 329.071 93.6497V99.2418H310.757V94.9079C310.757 89.9682 309.452 86.1469 306.843 83.4441C304.326 80.7412 300.831 79.3898 296.358 79.3898C291.791 79.3898 288.249 80.7412 285.733 83.4441C283.309 86.1469 282.098 89.9682 282.098 94.9079V143H264.622ZM377.668 144.398C371.144 144.398 365.412 143.186 360.472 140.763C355.626 138.247 351.851 134.752 349.148 130.278C346.446 125.711 345.094 120.352 345.094 114.201V94.9079C345.094 88.6634 346.446 83.3043 349.148 78.8306C351.851 74.3569 355.626 70.9084 360.472 68.4852C365.412 65.9687 371.144 64.7105 377.668 64.7105C387.361 64.7105 395.097 67.227 400.875 72.2598C406.654 77.1995 409.683 83.9567 409.963 92.5312H392.487C392.208 88.5236 390.763 85.4479 388.153 83.3043C385.637 81.0674 382.142 79.949 377.668 79.949C373.008 79.949 369.327 81.2538 366.624 83.8635C363.921 86.3799 362.569 90.0148 362.569 94.7681V114.201C362.569 118.954 363.921 122.635 366.624 125.245C369.327 127.855 373.008 129.16 377.668 129.16C382.142 129.16 385.637 128.088 388.153 125.944C390.763 123.707 392.208 120.585 392.487 116.577H409.963C409.683 125.152 406.654 131.956 400.875 136.988C395.097 141.928 387.361 144.398 377.668 144.398ZM461.216 144.398C454.691 144.398 449.006 143.14 444.16 140.623C439.313 138.107 435.538 134.612 432.836 130.138C430.226 125.571 428.921 120.259 428.921 114.201V94.9079C428.921 88.8498 430.226 83.5839 432.836 79.1102C435.538 74.5433 439.313 71.0016 444.16 68.4852C449.006 65.9687 454.691 64.7105 461.216 64.7105C467.646 64.7105 473.239 65.9687 477.992 68.4852C482.838 71.0016 486.566 74.5433 489.176 79.1102C491.879 83.5839 493.23 88.8498 493.23 94.9079V108.748H445.837V114.201C445.837 119.606 447.142 123.707 449.752 126.503C452.361 129.206 456.229 130.558 461.355 130.558C465.27 130.558 468.439 129.905 470.862 128.6C473.285 127.202 474.823 125.198 475.475 122.589H492.671C491.366 129.206 487.825 134.519 482.046 138.526C476.361 142.441 469.417 144.398 461.216 144.398ZM476.314 98.9622V94.7681C476.314 89.4556 475.056 85.4013 472.54 82.6053C470.023 79.716 466.248 78.2714 461.216 78.2714C456.183 78.2714 452.361 79.716 449.752 82.6053C447.142 85.4945 445.837 89.5954 445.837 94.9079V97.8437L477.572 97.5641L476.314 98.9622Z" fill="#E1885E"/>
<path d="M23.6267 141.462L24.7671 138.782L24.7671 138.782L23.6267 141.462ZM13.2813 133.773L10.9201 135.478L10.947 135.516L10.9751 135.552L13.2813 133.773ZM9.36678 122.03V119.117H6.33034L6.45675 122.151L9.36678 122.03ZM26.8421 122.03L29.7461 121.806L29.5392 119.117H26.8421V122.03ZM30.3372 127.901L28.6739 130.292L28.6976 130.309L28.7216 130.325L30.3372 127.901ZM54.8026 127.622L53.0076 125.328L54.8026 127.622ZM55.0823 114.48L53.1959 116.699L53.2552 116.75L53.3171 116.797L55.0823 114.48ZM46.2747 111.405L45.8509 114.286L45.8945 114.293L45.9383 114.298L46.2747 111.405ZM36.7681 110.007L37.1919 107.125L37.1795 107.123L37.1671 107.121L36.7681 110.007ZM17.4753 103.016L15.6008 105.246L15.6008 105.246L17.4753 103.016ZM18.5938 70.8618L20.4238 73.1276L20.4369 73.1171L20.4498 73.1064L18.5938 70.8618ZM65.8471 70.5822L64.1063 72.9174L64.1063 72.9174L65.8471 70.5822ZM74.0954 85.9605V88.8731H77.1817L77.0031 85.792L74.0954 85.9605ZM56.6201 85.9605L53.7342 86.354L54.0777 88.8731H56.6201V85.9605ZM53.125 80.9276L51.5094 83.351L51.5352 83.3682L51.5613 83.3848L53.125 80.9276ZM31.176 81.2072L32.9807 83.4932L32.9881 83.4874L32.9955 83.4815L31.176 81.2072ZM30.8964 93.3701L29.0449 95.6183L29.0854 95.6517L29.1272 95.6837L30.8964 93.3701ZM38.5855 96.0263L38.1313 98.9032L38.1553 98.907L38.1793 98.9104L38.5855 96.0263ZM48.5115 97.4243L48.9234 94.541L48.9177 94.5402L48.5115 97.4243ZM68.6431 104.834L66.7596 107.055L66.7855 107.077L66.8119 107.099L68.6431 104.834ZM67.5247 138.107L69.3645 140.365L69.369 140.361L67.5247 138.107ZM39.0049 141.346C33.4363 141.346 28.7133 140.461 24.7671 138.782L22.4862 144.142C27.301 146.191 32.8302 147.171 39.0049 147.171V141.346ZM24.7671 138.782C20.7738 137.083 17.7543 134.803 15.5874 131.994L10.9751 135.552C13.8411 139.267 17.7185 142.113 22.4862 144.142L24.7671 138.782ZM15.6424 132.068C13.5809 129.213 12.4415 125.86 12.2768 121.908L6.45675 122.151C6.66489 127.146 8.13512 131.622 10.9201 135.478L15.6424 132.068ZM9.36678 124.942H26.8421V119.117H9.36678V124.942ZM23.9381 122.253C24.1971 125.62 25.8734 128.344 28.6739 130.292L32.0004 125.51C30.5137 124.476 29.8599 123.286 29.7461 121.806L23.9381 122.253ZM28.7216 130.325C31.5672 132.222 35.0679 133.051 39.0049 133.051V127.226C35.8587 127.226 33.5809 126.563 31.9528 125.478L28.7216 130.325ZM39.0049 133.051H45.1563V127.226H39.0049V133.051ZM45.1563 133.051C49.7437 133.051 53.721 132.167 56.5977 129.915L53.0076 125.328C51.597 126.432 49.1434 127.226 45.1563 127.226V133.051ZM56.5977 129.915C59.4953 127.648 60.9307 124.493 60.9307 120.771H55.1056C55.1056 122.829 54.3972 124.241 53.0076 125.328L56.5977 129.915ZM60.9307 120.771C60.9307 117.263 59.6059 114.265 56.8474 112.164L53.3171 116.797C54.4731 117.678 55.1056 118.874 55.1056 120.771H60.9307ZM56.9686 112.261C54.4648 110.133 50.8555 109.005 46.6111 108.512L45.9383 114.298C49.7093 114.736 51.9716 115.659 53.1959 116.699L56.9686 112.261ZM46.6984 108.523L37.1919 107.125L36.3443 112.888L45.8509 114.286L46.6984 108.523ZM37.1671 107.121C28.6325 105.941 22.8388 103.721 19.3499 100.787L15.6008 105.246C20.3136 109.209 27.3818 111.649 36.3691 112.892L37.1671 107.121ZM19.3499 100.787C16.0864 98.0431 14.2366 93.8012 14.2366 87.4983H8.41146C8.41146 94.9894 10.6625 101.093 15.6008 105.246L19.3499 100.787ZM14.2366 87.4983C14.2366 81.0516 16.3708 76.4012 20.4238 73.1276L16.7637 68.596C11.1237 73.1514 8.41146 79.592 8.41146 87.4983H14.2366ZM20.4498 73.1064C24.5695 69.6997 30.9236 67.7629 39.9836 67.7629V61.9378C30.2167 61.9378 22.311 64.0086 16.7377 68.6173L20.4498 73.1064ZM39.9836 67.7629H45.2961V61.9378H39.9836V67.7629ZM45.2961 67.7629C53.4552 67.7629 59.63 69.5804 64.1063 72.9174L67.5878 68.2471C61.8119 63.9415 54.286 61.9378 45.2961 61.9378V67.7629ZM64.1063 72.9174C68.5365 76.2198 70.8643 80.5498 71.1877 86.1291L77.0031 85.792C76.5809 78.5094 73.4098 72.5872 67.5878 68.2471L64.1063 72.9174ZM74.0954 83.048H56.6201V88.8731H74.0954V83.048ZM59.5059 85.567C59.0899 82.5163 57.3223 80.1463 54.6887 78.4704L51.5613 83.3848C53.0286 84.3186 53.591 85.3039 53.7342 86.354L59.5059 85.567ZM54.7406 78.5042C52.1529 76.7791 48.9182 76.0578 45.2961 76.0578V81.8829C48.198 81.8829 50.1827 82.4665 51.5094 83.351L54.7406 78.5042ZM45.2961 76.0578H39.9836V81.8829H45.2961V76.0578ZM39.9836 76.0578C35.725 76.0578 31.9856 76.8297 29.3565 78.9329L32.9955 83.4815C34.0945 82.6023 36.2268 81.8829 39.9836 81.8829V76.0578ZM29.3712 78.9212C26.735 81.0025 25.6072 84.046 25.6072 87.4983H31.4323C31.4323 85.3586 32.0753 84.208 32.9807 83.4932L29.3712 78.9212ZM25.6072 87.4983C25.6072 90.7221 26.6131 93.6157 29.0449 95.6183L32.7479 91.1218C32.0108 90.5147 31.4323 89.4939 31.4323 87.4983H25.6072ZM29.1272 95.6837C31.2929 97.3398 34.4369 98.3199 38.1313 98.9032L39.0398 93.1494C35.6508 92.6143 33.6688 91.8235 32.6656 91.0564L29.1272 95.6837ZM38.1793 98.9104L48.1053 100.308L48.9177 94.5402L38.9917 93.1422L38.1793 98.9104ZM48.0996 100.308C57.0036 101.58 63.0799 103.936 66.7596 107.055L70.5266 102.612C65.6317 98.4623 58.287 95.8787 48.9234 94.5411L48.0996 100.308ZM66.8119 107.099C70.3462 109.956 72.3013 114.289 72.3013 120.632H78.1264C78.1264 112.994 75.701 106.795 70.4743 102.569L66.8119 107.099ZM72.3013 120.632C72.3013 127.338 70.0399 132.286 65.6803 135.853L69.369 140.361C75.2617 135.54 78.1264 128.837 78.1264 120.632H72.3013ZM65.6849 135.849C61.382 139.355 54.6992 141.346 45.1563 141.346V147.171C55.3721 147.171 63.6015 145.061 69.3645 140.365L65.6849 135.849ZM45.1563 141.346H39.0049V147.171H45.1563V141.346ZM108.712 140.623L107.349 143.197L107.379 143.213L107.409 143.228L108.712 140.623ZM97.5276 130.138L94.9988 131.583L95.0164 131.614L95.0347 131.644L97.5276 130.138ZM97.5276 79.1102L95.0212 77.6268L95.0165 77.6347L95.0118 77.6426L97.5276 79.1102ZM108.712 68.625L110.035 71.2198L110.044 71.2149L110.054 71.2099L108.712 68.625ZM142.824 68.625L141.461 71.1991L141.481 71.2096L141.501 71.2198L142.824 68.625ZM153.868 79.1102L151.339 80.5552L151.357 80.586L151.375 80.6163L153.868 79.1102ZM153.868 130.138L151.362 128.655L151.357 128.663L151.352 128.671L153.868 130.138ZM142.824 140.623L144.147 143.218L144.167 143.208L144.186 143.197L142.824 140.623ZM136.533 125.245L134.473 123.186L134.473 123.186L136.533 125.245ZM136.533 83.8635L134.473 85.923L134.492 85.9417L134.511 85.9601L136.533 83.8635ZM115.003 83.8635L117.025 85.9601L117.025 85.9601L115.003 83.8635ZM115.003 125.245L112.943 127.305L112.962 127.323L112.981 127.342L115.003 125.245ZM125.768 141.346C119.605 141.346 114.382 140.202 110.014 138.018L107.409 143.228C112.735 145.891 118.883 147.171 125.768 147.171V141.346ZM110.075 138.049C105.774 135.772 102.442 132.64 100.021 128.632L95.0347 131.644C98.0188 136.583 102.143 140.442 107.349 143.197L110.075 138.049ZM100.056 128.693C97.738 124.636 96.5257 119.792 96.5257 114.061H90.7006C90.7006 120.632 92.098 126.507 94.9988 131.583L100.056 128.693ZM96.5257 114.061V95.0477H90.7006V114.061H96.5257ZM96.5257 95.0477C96.5257 89.3148 97.7386 84.5289 100.043 80.5777L95.0118 77.6426C92.0974 82.6389 90.7006 88.478 90.7006 95.0477H96.5257ZM100.034 80.5936C102.454 76.5046 105.771 73.3937 110.035 71.2198L107.389 66.0302C102.147 68.7028 98.0068 72.582 95.0212 77.6268L100.034 80.5936ZM110.054 71.2099C114.412 68.9468 119.62 67.7629 125.768 67.7629V61.9378C118.867 61.9378 112.704 63.2702 107.37 66.0401L110.054 71.2099ZM125.768 67.7629C132.018 67.7629 137.214 68.9504 141.461 71.1991L144.186 66.0509C138.927 63.2666 132.752 61.9378 125.768 61.9378V67.7629ZM141.501 71.2198C145.756 73.3893 149.015 76.4883 151.339 80.5552L156.397 77.6652C153.502 72.5983 149.398 68.7071 144.147 66.0302L141.501 71.2198ZM151.375 80.6163C153.762 84.5674 155.01 89.2949 155.01 94.9079H160.835C160.835 88.4046 159.38 82.6004 156.361 77.6041L151.375 80.6163ZM155.01 94.9079V114.061H160.835V94.9079H155.01ZM155.01 114.061C155.01 119.774 153.759 124.604 151.362 128.655L156.375 131.622C159.383 126.538 160.835 120.65 160.835 114.061H155.01ZM151.352 128.671C149.027 132.657 145.754 135.777 141.461 138.049L144.186 143.197C149.4 140.437 153.49 136.567 156.384 131.606L151.352 128.671ZM141.501 138.029C137.244 140.199 132.034 141.346 125.768 141.346V147.171C132.737 147.171 138.897 145.894 144.147 143.218L141.501 138.029ZM125.768 131.932C130.952 131.932 135.376 130.521 138.592 127.305L134.473 123.186C132.657 125.002 129.904 126.107 125.768 126.107V131.932ZM138.592 127.305C141.903 123.994 143.36 119.429 143.36 114.061H137.535C137.535 118.386 136.381 121.277 134.473 123.186L138.592 127.305ZM143.36 114.061V95.0477H137.535V114.061H143.36ZM143.36 95.0477C143.36 89.6128 141.916 85.0082 138.554 81.7669L134.511 85.9601C136.369 87.7516 137.535 90.6032 137.535 95.0477H143.36ZM138.592 81.804C135.376 78.5876 130.952 77.1762 125.768 77.1762V83.0014C129.904 83.0014 132.657 84.1064 134.473 85.923L138.592 81.804ZM125.768 77.1762C120.652 77.1762 116.265 78.6 112.981 81.7669L117.025 85.9601C118.96 84.094 121.75 83.0014 125.768 83.0014V77.1762ZM112.981 81.7669C109.62 85.0082 108.176 89.6128 108.176 95.0477H114.001C114.001 90.6032 115.167 87.7516 117.025 85.9601L112.981 81.7669ZM108.176 95.0477V114.061H114.001V95.0477H108.176ZM108.176 114.061C108.176 119.429 109.632 123.994 112.943 127.305L117.062 123.186C115.154 121.277 114.001 118.386 114.001 114.061H108.176ZM112.981 127.342C116.265 130.509 120.652 131.932 125.768 131.932V126.107C121.75 126.107 118.96 125.014 117.025 123.148L112.981 127.342ZM186.527 136.289L184.485 138.366L184.494 138.375L184.503 138.384L186.527 136.289ZM178.139 66.1085V63.196H175.227V66.1085H178.139ZM195.615 66.1085H198.527V63.196H195.615V66.1085ZM199.249 125.245L197.081 127.189L197.098 127.208L197.115 127.227L199.249 125.245ZM219.8 125.245L217.669 123.26L217.666 123.263L219.8 125.245ZM223.575 66.1085V63.196H220.662V66.1085H223.575ZM241.05 66.1085H243.963V63.196H241.05V66.1085ZM232.522 136.289L234.529 138.4L234.538 138.392L234.547 138.383L232.522 136.289ZM209.595 141.485C200.359 141.485 193.469 138.949 188.552 134.195L184.503 138.384C190.769 144.441 199.258 147.311 209.595 147.311V141.485ZM188.569 134.213C183.643 129.369 181.052 122.721 181.052 113.921H175.227C175.227 123.948 178.227 132.212 184.485 138.366L188.569 134.213ZM181.052 113.921V66.1085H175.227V113.921H181.052ZM178.139 69.0211H195.615V63.196H178.139V69.0211ZM192.702 66.1085V113.781H198.527V66.1085H192.702ZM192.702 113.781C192.702 119.177 194.029 123.785 197.081 127.189L201.418 123.301C199.623 121.299 198.527 118.265 198.527 113.781H192.702ZM197.115 127.227C200.224 130.575 204.533 132.072 209.595 132.072V126.247C205.71 126.247 203.121 125.135 201.384 123.263L197.115 127.227ZM209.595 132.072C214.585 132.072 218.837 130.562 221.935 127.227L217.666 123.263C215.917 125.147 213.366 126.247 209.595 126.247V132.072ZM221.932 127.23C225.1 123.827 226.488 119.204 226.488 113.781H220.662C220.662 118.238 219.534 121.257 217.669 123.26L221.932 127.23ZM226.488 113.781V66.1085H220.662V113.781H226.488ZM223.575 69.0211H241.05V63.196H223.575V69.0211ZM238.138 66.1085V113.921H243.963V66.1085H238.138ZM238.138 113.921C238.138 122.707 235.509 129.349 230.498 134.196L234.547 138.383C240.907 132.232 243.963 123.962 243.963 113.921H238.138ZM230.515 134.179C225.487 138.96 218.624 141.485 209.595 141.485V147.311C219.765 147.311 228.187 144.431 234.529 138.4L230.515 134.179ZM264.622 143H261.71V145.913H264.622V143ZM264.622 66.1085V63.196H261.71V66.1085H264.622ZM281.119 66.1085H284.032V63.196H281.119V66.1085ZM281.119 80.7878H278.207V83.7004H281.119V80.7878ZM285.453 80.7878L287.975 82.2456L290.501 77.8753H285.453V80.7878ZM280.28 89.7352H277.368V100.592L282.802 91.1929L280.28 89.7352ZM285.872 71.0016L283.696 69.0666L283.696 69.0666L285.872 71.0016ZM321.941 72.3997L319.806 74.38L319.806 74.38L321.941 72.3997ZM329.071 99.2418V102.154H331.984V99.2418H329.071ZM310.757 99.2418H307.845V102.154H310.757V99.2418ZM306.843 83.4441L304.711 85.4287L304.729 85.4481L304.748 85.4671L306.843 83.4441ZM285.733 83.4441L283.601 81.4594L283.582 81.4794L283.564 81.4998L285.733 83.4441ZM282.098 143V145.913H285.01V143H282.098ZM267.535 143V66.1085H261.71V143H267.535ZM264.622 69.0211H281.119V63.196H264.622V69.0211ZM278.207 66.1085V80.7878H284.032V66.1085H278.207ZM281.119 83.7004H285.453V77.8753H281.119V83.7004ZM282.932 79.3301L277.759 88.2774L282.802 91.1929L287.975 82.2456L282.932 79.3301ZM283.193 89.7352C283.193 81.8203 284.978 76.3922 288.049 72.9366L283.696 69.0666C279.311 73.9992 277.368 81.0602 277.368 89.7352H283.193ZM288.049 72.9366C291.072 69.5362 295.67 67.6231 302.369 67.6231V61.798C294.529 61.798 288.129 64.0789 283.696 69.0666L288.049 72.9366ZM302.369 67.6231C310.018 67.6231 315.706 69.959 319.806 74.38L324.077 70.4193C318.67 64.5881 311.31 61.798 302.369 61.798V67.6231ZM319.806 74.38C323.927 78.8241 326.159 85.1212 326.159 93.6497H331.984C331.984 84.097 329.463 76.2274 324.077 70.4193L319.806 74.38ZM326.159 93.6497V99.2418H331.984V93.6497H326.159ZM329.071 96.3292H310.757V102.154H329.071V96.3292ZM313.67 99.2418V94.9079H307.845V99.2418H313.67ZM313.67 94.9079C313.67 89.4588 312.221 84.8209 308.938 81.421L304.748 85.4671C306.684 87.4729 307.845 90.4776 307.845 94.9079H313.67ZM308.974 81.4594C305.793 78.042 301.455 76.4772 296.358 76.4772V82.3023C300.207 82.3023 302.86 83.4404 304.711 85.4287L308.974 81.4594ZM296.358 76.4772C291.187 76.4772 286.794 78.0297 283.601 81.4594L287.864 85.4287C289.704 83.4527 292.394 82.3023 296.358 82.3023V76.4772ZM283.564 81.4998C280.512 84.9039 279.185 89.5118 279.185 94.9079H285.01C285.01 90.4245 286.107 87.3899 287.901 85.3883L283.564 81.4998ZM279.185 94.9079V143H285.01V94.9079H279.185ZM282.098 140.087H264.622V145.913H282.098V140.087ZM360.472 140.763L359.13 143.348L359.16 143.363L359.19 143.378L360.472 140.763ZM349.148 130.278L346.642 131.761L346.649 131.773L346.656 131.784L349.148 130.278ZM349.148 78.8306L351.641 80.3367L351.641 80.3367L349.148 78.8306ZM360.472 68.4852L361.775 71.0902L361.785 71.0853L361.795 71.0804L360.472 68.4852ZM400.875 72.2598L398.962 74.4562L398.973 74.465L398.983 74.4737L400.875 72.2598ZM409.963 92.5312V95.4438H412.972L412.874 92.4363L409.963 92.5312ZM392.487 92.5312L389.582 92.7339L389.771 95.4438H392.487V92.5312ZM388.153 83.3043L386.218 85.4811L386.261 85.5188L386.305 85.5549L388.153 83.3043ZM366.624 83.8635L368.608 85.9952L368.628 85.9771L368.647 85.9588L366.624 83.8635ZM366.624 125.245L364.601 127.34L364.601 127.34L366.624 125.245ZM388.153 125.944L390.042 128.161L390.049 128.155L388.153 125.944ZM392.487 116.577V113.665H389.771L389.582 116.375L392.487 116.577ZM409.963 116.577L412.874 116.672L412.972 113.665H409.963V116.577ZM400.875 136.988L402.768 139.202L402.778 139.194L402.788 139.185L400.875 136.988ZM377.668 141.485C371.507 141.485 366.228 140.343 361.755 138.148L359.19 143.378C364.596 146.03 370.781 147.311 377.668 147.311V141.485ZM361.815 138.178C357.421 135.897 354.054 132.766 351.641 128.772L346.656 131.784C349.648 136.737 353.831 140.596 359.13 143.348L361.815 138.178ZM351.655 128.795C349.258 124.744 348.007 119.914 348.007 114.201H342.182C342.182 120.79 343.633 126.678 346.642 131.761L351.655 128.795ZM348.007 114.201V94.9079H342.182V114.201H348.007ZM348.007 94.9079C348.007 89.0902 349.262 84.2745 351.641 80.3367L346.656 77.3244C343.629 82.334 342.182 88.2365 342.182 94.9079H348.007ZM351.641 80.3367C354.048 76.3524 357.402 73.2766 361.775 71.0902L359.17 65.8801C353.85 68.5402 349.654 72.3614 346.656 77.3244L351.641 80.3367ZM361.795 71.0804C366.258 68.8065 371.523 67.6231 377.668 67.6231V61.798C370.766 61.798 364.566 63.131 359.15 65.89L361.795 71.0804ZM377.668 67.6231C386.85 67.6231 393.843 69.9973 398.962 74.4562L402.788 70.0635C396.351 64.4566 387.872 61.798 377.668 61.798V67.6231ZM398.983 74.4737C404.056 78.8104 406.795 84.7533 407.052 92.6262L412.874 92.4363C412.571 83.1601 409.252 75.5887 402.768 70.046L398.983 74.4737ZM409.963 89.6187H392.487V95.4438H409.963V89.6187ZM395.393 92.3285C395.069 87.686 393.347 83.8013 390.002 81.0537L386.305 85.5549C388.179 87.0945 389.346 89.3612 389.582 92.7339L395.393 92.3285ZM390.088 81.1274C386.884 78.2791 382.617 77.0364 377.668 77.0364V82.8616C381.667 82.8616 384.39 83.8557 386.218 85.4811L390.088 81.1274ZM377.668 77.0364C372.444 77.0364 367.97 78.5151 364.601 81.7682L368.647 85.9588C370.683 83.9926 373.572 82.8616 377.668 82.8616V77.0364ZM364.639 81.7318C361.186 84.9468 359.657 89.4518 359.657 94.7681H365.482C365.482 90.5777 366.656 87.813 368.608 85.9952L364.639 81.7318ZM359.657 94.7681V114.201H365.482V94.7681H359.657ZM359.657 114.201C359.657 119.522 361.188 124.045 364.601 127.34L368.647 123.15C366.654 121.226 365.482 118.385 365.482 114.201H359.657ZM364.601 127.34C367.97 130.593 372.444 132.072 377.668 132.072V126.247C373.572 126.247 370.683 125.116 368.647 123.15L364.601 127.34ZM377.668 132.072C382.588 132.072 386.838 130.891 390.042 128.161L386.265 123.727C384.436 125.285 381.695 126.247 377.668 126.247V132.072ZM390.049 128.155C393.35 125.326 395.069 121.423 395.393 116.78L389.582 116.375C389.346 119.747 388.176 122.089 386.258 123.733L390.049 128.155ZM392.487 119.49H409.963V113.665H392.487V119.49ZM407.052 116.482C406.795 124.355 404.055 130.357 398.962 134.792L402.788 139.185C409.253 133.554 412.571 125.949 412.874 116.672L407.052 116.482ZM398.983 134.775C393.864 139.151 386.863 141.485 377.668 141.485V147.311C387.859 147.311 396.33 144.706 402.768 139.202L398.983 134.775ZM444.16 140.623L442.817 143.208L444.16 140.623ZM432.836 130.138L430.307 131.583L430.324 131.614L430.343 131.644L432.836 130.138ZM432.836 79.1102L430.329 77.6268L430.324 77.6347L430.32 77.6426L432.836 79.1102ZM444.16 68.4852L442.817 65.9003L442.817 65.9003L444.16 68.4852ZM477.992 68.4852L476.629 71.0593L476.639 71.0647L476.65 71.0701L477.992 68.4852ZM489.176 79.1102L486.647 80.5552L486.665 80.586L486.683 80.6163L489.176 79.1102ZM493.23 108.748V111.661H496.143V108.748H493.23ZM445.837 108.748V105.836H442.925V108.748H445.837ZM449.752 126.503L447.622 128.491L447.639 128.509L447.656 128.526L449.752 126.503ZM470.862 128.6L472.243 131.165L472.28 131.144L472.317 131.123L470.862 128.6ZM475.475 122.589V119.676H473.201L472.65 121.882L475.475 122.589ZM492.671 122.589L495.529 123.152L496.214 119.676H492.671V122.589ZM482.046 138.526L483.698 140.925L483.706 140.92L482.046 138.526ZM476.314 98.9622H473.402V106.552L478.479 100.911L476.314 98.9622ZM472.54 82.6053L470.343 84.5182L470.359 84.536L470.375 84.5536L472.54 82.6053ZM449.752 82.6053L451.913 84.5575L451.913 84.5575L449.752 82.6053ZM445.837 97.8437H442.925V100.782L445.863 100.756L445.837 97.8437ZM477.572 97.5641L479.737 99.5125L484.165 94.5934L477.547 94.6517L477.572 97.5641ZM461.216 141.485C455.068 141.485 449.86 140.302 445.502 138.038L442.817 143.208C448.152 145.978 454.315 147.311 461.216 147.311V141.485ZM445.502 138.038C441.108 135.757 437.742 132.626 435.329 128.632L430.343 131.644C433.335 136.598 437.518 140.456 442.817 143.208L445.502 138.038ZM435.364 128.693C433.042 124.629 431.834 119.83 431.834 114.201H426.009C426.009 120.688 427.41 126.513 430.307 131.583L435.364 128.693ZM431.834 114.201V94.9079H426.009V114.201H431.834ZM431.834 94.9079C431.834 89.2771 433.043 84.5354 435.351 80.5777L430.32 77.6426C427.409 82.6323 426.009 88.4225 426.009 94.9079H431.834ZM435.342 80.5936C437.759 76.5097 441.124 73.3431 445.502 71.0701L442.817 65.9003C437.502 68.6601 433.318 72.5769 430.329 77.6268L435.342 80.5936ZM445.502 71.0701C449.86 68.807 455.068 67.6231 461.216 67.6231V61.798C454.315 61.798 448.152 63.1304 442.817 65.9003L445.502 71.0701ZM461.216 67.6231C467.264 67.6231 472.37 68.8047 476.629 71.0593L479.355 65.9111C474.107 63.1328 468.029 61.798 461.216 61.798V67.6231ZM476.65 71.0701C481.019 73.3389 484.326 76.4936 486.647 80.5552L491.705 77.6652C488.806 72.5929 484.657 68.6644 479.334 65.9003L476.65 71.0701ZM486.683 80.6163C489.07 84.5674 490.318 89.2949 490.318 94.9079H496.143C496.143 88.4046 494.688 82.6004 491.669 77.6041L486.683 80.6163ZM490.318 94.9079V108.748H496.143V94.9079H490.318ZM493.23 105.836H445.837V111.661H493.23V105.836ZM442.925 108.748V114.201H448.75V108.748H442.925ZM442.925 114.201C442.925 120.039 444.334 124.967 447.622 128.491L451.881 124.516C449.95 122.447 448.75 119.174 448.75 114.201H442.925ZM447.656 128.526C450.992 131.981 455.736 133.47 461.355 133.47V127.645C456.723 127.645 453.731 126.432 451.847 124.48L447.656 128.526ZM461.355 133.47C465.561 133.47 469.254 132.774 472.243 131.165L469.481 126.036C467.624 127.036 464.979 127.645 461.355 127.645V133.47ZM472.317 131.123C475.394 129.348 477.449 126.705 478.301 123.295L472.65 121.882C472.197 123.692 471.176 125.056 469.406 126.078L472.317 131.123ZM475.475 125.501H492.671V119.676H475.475V125.501ZM489.814 122.025C488.662 127.866 485.572 132.536 480.386 136.133L483.706 140.92C490.077 136.501 494.071 130.546 495.529 123.152L489.814 122.025ZM480.394 136.127C475.281 139.648 468.941 141.485 461.216 141.485V147.311C469.894 147.311 477.441 145.233 483.698 140.925L480.394 136.127ZM479.227 98.9622V94.7681H473.402V98.9622H479.227ZM479.227 94.7681C479.227 89.0315 477.869 84.1728 474.704 80.6569L470.375 84.5536C472.243 86.6298 473.402 89.8797 473.402 94.7681H479.227ZM474.736 80.6923C471.505 76.9833 466.81 75.3588 461.216 75.3588V81.1839C465.687 81.1839 468.541 82.4487 470.343 84.5182L474.736 80.6923ZM461.216 75.3588C455.615 75.3588 450.903 76.9852 447.59 80.653L451.913 84.5575C453.82 82.4468 456.751 81.1839 461.216 81.1839V75.3588ZM447.59 80.653C444.345 84.2463 442.925 89.1394 442.925 94.9079H448.75C448.75 90.0513 449.939 86.7427 451.913 84.5575L447.59 80.653ZM442.925 94.9079V97.8437H448.75V94.9079H442.925ZM445.863 100.756L477.598 100.477L477.547 94.6517L445.812 94.9313L445.863 100.756ZM475.408 95.6157L474.149 97.0138L478.479 100.911L479.737 99.5125L475.408 95.6157Z" fill="#D66A37"/>
<path d="M23.6267 246.314L24.7671 243.634L24.7671 243.634L23.6267 246.314ZM13.2813 238.625L10.9201 240.33L10.947 240.368L10.9751 240.404L13.2813 238.625ZM9.36678 226.882V223.969H6.33034L6.45675 227.003L9.36678 226.882ZM26.8421 226.882L29.7461 226.658L29.5392 223.969H26.8421V226.882ZM30.3372 232.753L28.6739 235.144L28.6976 235.161L28.7216 235.177L30.3372 232.753ZM54.8026 232.474L53.0076 230.18L54.8026 232.474ZM55.0823 219.332L53.1959 221.551L53.2552 221.602L53.3171 221.649L55.0823 219.332ZM46.2747 216.257L45.8509 219.138L45.8945 219.145L45.9383 219.15L46.2747 216.257ZM36.7681 214.859L37.1919 211.977L37.1795 211.975L37.1671 211.973L36.7681 214.859ZM17.4753 207.868L15.6008 210.098L15.6008 210.098L17.4753 207.868ZM18.5938 175.714L20.4238 177.98L20.4369 177.969L20.4498 177.958L18.5938 175.714ZM65.8471 175.434L64.1063 177.769L64.1063 177.769L65.8471 175.434ZM74.0954 190.813V193.725H77.1817L77.0031 190.644L74.0954 190.813ZM56.6201 190.813L53.7342 191.206L54.0777 193.725H56.6201V190.813ZM53.125 185.78L51.5094 188.203L51.5352 188.22L51.5613 188.237L53.125 185.78ZM31.176 186.059L32.9807 188.345L32.9881 188.339L32.9955 188.334L31.176 186.059ZM30.8964 198.222L29.0449 200.47L29.0854 200.504L29.1272 200.536L30.8964 198.222ZM38.5855 200.878L38.1313 203.755L38.1553 203.759L38.1793 203.762L38.5855 200.878ZM48.5115 202.276L48.9234 199.393L48.9177 199.392L48.5115 202.276ZM68.6431 209.686L66.7596 211.907L66.7855 211.929L66.8119 211.951L68.6431 209.686ZM67.5247 242.959L69.3645 245.217L69.369 245.213L67.5247 242.959ZM39.0049 246.198C33.4363 246.198 28.7133 245.313 24.7671 243.634L22.4862 248.994C27.301 251.043 32.8302 252.023 39.0049 252.023V246.198ZM24.7671 243.634C20.7738 241.935 17.7543 239.655 15.5874 236.846L10.9751 240.404C13.8411 244.119 17.7185 246.965 22.4862 248.994L24.7671 243.634ZM15.6424 236.92C13.5809 234.065 12.4415 230.712 12.2768 226.76L6.45675 227.003C6.66489 231.998 8.13512 236.474 10.9201 240.33L15.6424 236.92ZM9.36678 229.794H26.8421V223.969H9.36678V229.794ZM23.9381 227.105C24.1971 230.472 25.8734 233.196 28.6739 235.144L32.0004 230.362C30.5137 229.328 29.8599 228.138 29.7461 226.658L23.9381 227.105ZM28.7216 235.177C31.5672 237.074 35.0679 237.903 39.0049 237.903V232.078C35.8587 232.078 33.5809 231.415 31.9528 230.33L28.7216 235.177ZM39.0049 237.903H45.1563V232.078H39.0049V237.903ZM45.1563 237.903C49.7437 237.903 53.721 237.019 56.5977 234.767L53.0076 230.18C51.597 231.284 49.1434 232.078 45.1563 232.078V237.903ZM56.5977 234.767C59.4953 232.5 60.9307 229.345 60.9307 225.623H55.1056C55.1056 227.681 54.3972 229.093 53.0076 230.18L56.5977 234.767ZM60.9307 225.623C60.9307 222.115 59.6059 219.117 56.8474 217.016L53.3171 221.649C54.4731 222.53 55.1056 223.726 55.1056 225.623H60.9307ZM56.9686 217.113C54.4648 214.985 50.8555 213.857 46.6111 213.364L45.9383 219.15C49.7093 219.588 51.9716 220.511 53.1959 221.551L56.9686 217.113ZM46.6984 213.375L37.1919 211.977L36.3443 217.74L45.8509 219.138L46.6984 213.375ZM37.1671 211.973C28.6325 210.793 22.8388 208.573 19.3499 205.639L15.6008 210.098C20.3136 214.061 27.3818 216.501 36.3691 217.744L37.1671 211.973ZM19.3499 205.639C16.0864 202.895 14.2366 198.653 14.2366 192.35H8.41146C8.41146 199.841 10.6625 205.945 15.6008 210.098L19.3499 205.639ZM14.2366 192.35C14.2366 185.904 16.3708 181.253 20.4238 177.98L16.7637 173.448C11.1237 178.003 8.41146 184.444 8.41146 192.35H14.2366ZM20.4498 177.958C24.5695 174.552 30.9236 172.615 39.9836 172.615V166.79C30.2167 166.79 22.311 168.861 16.7377 173.469L20.4498 177.958ZM39.9836 172.615H45.2961V166.79H39.9836V172.615ZM45.2961 172.615C53.4552 172.615 59.63 174.432 64.1063 177.769L67.5878 173.099C61.8119 168.793 54.286 166.79 45.2961 166.79V172.615ZM64.1063 177.769C68.5365 181.072 70.8643 185.402 71.1877 190.981L77.0031 190.644C76.5809 183.361 73.4098 177.439 67.5878 173.099L64.1063 177.769ZM74.0954 187.9H56.6201V193.725H74.0954V187.9ZM59.5059 190.419C59.0899 187.368 57.3223 184.998 54.6887 183.322L51.5613 188.237C53.0286 189.171 53.591 190.156 53.7342 191.206L59.5059 190.419ZM54.7406 183.356C52.1529 181.631 48.9182 180.91 45.2961 180.91V186.735C48.198 186.735 50.1827 187.318 51.5094 188.203L54.7406 183.356ZM45.2961 180.91H39.9836V186.735H45.2961V180.91ZM39.9836 180.91C35.725 180.91 31.9856 181.682 29.3565 183.785L32.9955 188.334C34.0945 187.454 36.2268 186.735 39.9836 186.735V180.91ZM29.3712 183.773C26.735 185.854 25.6072 188.898 25.6072 192.35H31.4323C31.4323 190.211 32.0753 189.06 32.9807 188.345L29.3712 183.773ZM25.6072 192.35C25.6072 195.574 26.6131 198.468 29.0449 200.47L32.7479 195.974C32.0108 195.367 31.4323 194.346 31.4323 192.35H25.6072ZM29.1272 200.536C31.2929 202.192 34.4369 203.172 38.1313 203.755L39.0398 198.001C35.6508 197.466 33.6688 196.676 32.6656 195.908L29.1272 200.536ZM38.1793 203.762L48.1053 205.16L48.9177 199.392L38.9917 197.994L38.1793 203.762ZM48.0996 205.16C57.0036 206.432 63.0799 208.788 66.7596 211.907L70.5266 207.464C65.6317 203.314 58.287 200.731 48.9234 199.393L48.0996 205.16ZM66.8119 211.951C70.3462 214.808 72.3013 219.141 72.3013 225.484H78.1264C78.1264 217.846 75.701 211.647 70.4743 207.421L66.8119 211.951ZM72.3013 225.484C72.3013 232.19 70.0399 237.138 65.6803 240.705L69.369 245.213C75.2617 240.392 78.1264 233.689 78.1264 225.484H72.3013ZM65.6849 240.701C61.382 244.207 54.6992 246.198 45.1563 246.198V252.023C55.3721 252.023 63.6015 249.913 69.3645 245.217L65.6849 240.701ZM45.1563 246.198H39.0049V252.023H45.1563V246.198ZM107.593 245.615L106.251 248.2L106.281 248.215L106.311 248.23L107.593 245.615ZM96.2694 235.13L93.763 236.613L93.7697 236.625L93.7765 236.636L96.2694 235.13ZM96.2694 183.683L98.7623 185.189L98.7623 185.189L96.2694 183.683ZM107.593 173.337L108.896 175.942L108.906 175.937L108.916 175.932L107.593 173.337ZM147.996 177.112L146.084 179.308L146.094 179.317L146.104 179.326L147.996 177.112ZM157.084 197.383V200.296H160.093L159.995 197.288L157.084 197.383ZM139.608 197.383L136.703 197.586L136.892 200.296H139.608V197.383ZM135.274 188.156L133.339 190.333L133.382 190.371L133.426 190.407L135.274 188.156ZM113.745 188.715L115.729 190.847L115.749 190.829L115.768 190.811L113.745 188.715ZM113.745 230.097L111.722 232.192L111.722 232.192L113.745 230.097ZM135.274 230.796L137.163 233.013L137.17 233.007L135.274 230.796ZM139.608 221.429V218.517H136.892L136.703 221.227L139.608 221.429ZM157.084 221.429L159.995 221.524L160.093 218.517H157.084V221.429ZM147.996 241.84L149.889 244.054L149.899 244.046L149.909 244.037L147.996 241.84ZM124.789 246.337C118.628 246.337 113.349 245.195 108.876 243L106.311 248.23C111.717 250.882 117.902 252.163 124.789 252.163V246.337ZM108.936 243.03C104.542 240.749 101.175 237.618 98.7623 233.624L93.7765 236.636C96.7691 241.589 100.952 245.448 106.251 248.2L108.936 243.03ZM98.7759 233.647C96.3787 229.596 95.1277 224.766 95.1277 219.053H89.3026C89.3026 225.642 90.7544 231.53 93.763 236.613L98.7759 233.647ZM95.1277 219.053V199.76H89.3026V219.053H95.1277ZM95.1277 199.76C95.1277 193.942 96.3832 189.126 98.7623 185.189L93.7765 182.176C90.7499 187.186 89.3026 193.088 89.3026 199.76H95.1277ZM98.7623 185.189C101.169 181.204 104.523 178.129 108.896 175.942L106.291 170.732C100.971 173.392 96.7751 177.213 93.7765 182.176L98.7623 185.189ZM108.916 175.932C113.379 173.658 118.644 172.475 124.789 172.475V166.65C117.887 166.65 111.687 167.983 106.271 170.742L108.916 175.932ZM124.789 172.475C133.971 172.475 140.964 174.849 146.084 179.308L149.909 174.916C143.472 169.309 134.993 166.65 124.789 166.65V172.475ZM146.104 179.326C151.177 183.662 153.916 189.605 154.173 197.478L159.995 197.288C159.692 188.012 156.373 180.441 149.889 174.898L146.104 179.326ZM157.084 194.471H139.608V200.296H157.084V194.471ZM142.514 197.181C142.19 192.538 140.468 188.653 137.123 185.906L133.426 190.407C135.3 191.946 136.467 194.213 136.703 197.586L142.514 197.181ZM137.209 185.979C134.005 183.131 129.738 181.888 124.789 181.888V187.714C128.788 187.714 131.511 188.708 133.339 190.333L137.209 185.979ZM124.789 181.888C119.565 181.888 115.091 183.367 111.722 186.62L115.768 190.811C117.804 188.845 120.693 187.714 124.789 187.714V181.888ZM111.76 186.584C108.307 189.799 106.778 194.304 106.778 199.62H112.603C112.603 195.43 113.777 192.665 115.729 190.847L111.76 186.584ZM106.778 199.62V219.053H112.603V199.62H106.778ZM106.778 219.053C106.778 224.374 108.309 228.897 111.722 232.192L115.768 228.002C113.775 226.078 112.603 223.237 112.603 219.053H106.778ZM111.722 232.192C115.091 235.445 119.565 236.924 124.789 236.924V231.099C120.693 231.099 117.804 229.968 115.768 228.002L111.722 232.192ZM124.789 236.924C129.71 236.924 133.959 235.743 137.163 233.013L133.386 228.579C131.557 230.137 128.816 231.099 124.789 231.099V236.924ZM137.17 233.007C140.471 230.178 142.19 226.275 142.514 221.632L136.703 221.227C136.468 224.599 135.297 226.941 133.379 228.585L137.17 233.007ZM139.608 224.342H157.084V218.517H139.608V224.342ZM154.173 221.334C153.916 229.207 151.176 235.209 146.084 239.644L149.909 244.037C156.374 238.406 159.692 230.801 159.995 221.524L154.173 221.334ZM146.104 239.627C140.985 244.003 133.984 246.337 124.789 246.337V252.163C134.98 252.163 143.451 249.558 149.889 244.054L146.104 239.627ZM179.537 242.959L177.567 245.104L177.567 245.104L179.537 242.959ZM180.236 208.567L182.076 210.825L182.076 210.825L180.236 208.567ZM220.779 202.416V205.329H223.692V202.416H220.779ZM217.144 187.178L215.214 189.359L215.238 189.38L215.263 189.401L217.144 187.178ZM197.712 186.479L199.327 188.902L199.327 188.902L197.712 186.479ZM193.238 193.329V196.242H195.718L196.113 193.793L193.238 193.329ZM176.182 193.329L173.289 192.995L172.914 196.242H176.182V193.329ZM185.968 175.993L187.722 178.319L187.722 178.319L185.968 175.993ZM230.006 176.692L228.083 178.88L228.103 178.897L228.123 178.914L230.006 176.692ZM238.254 247.852V250.765H241.167V247.852H238.254ZM221.338 247.852H218.426V250.765H221.338V247.852ZM221.338 234.431H224.251V231.518H221.338V234.431ZM218.542 234.431L216.202 232.697L212.76 237.343H218.542V234.431ZM221.338 230.656H224.251V221.831L218.998 228.923L221.338 230.656ZM215.047 244.217L216.867 246.491L216.867 246.491L215.047 244.217ZM216.026 232.334L214.214 230.053L214.198 230.066L214.181 230.08L216.026 232.334ZM220.779 213.181H223.692V210.268H220.779V213.181ZM193.797 233.033L191.867 235.214L191.912 235.254L191.957 235.291L193.797 233.033ZM198.271 246.337C190.869 246.337 185.4 244.389 181.507 240.814L177.567 245.104C182.808 249.917 189.829 252.163 198.271 252.163V246.337ZM181.507 240.814C177.629 237.252 175.599 232.439 175.599 226.043H169.774C169.774 233.814 172.311 240.277 177.567 245.104L181.507 240.814ZM175.599 226.043C175.599 219.21 177.837 214.28 182.076 210.825L178.396 206.31C172.57 211.057 169.774 217.777 169.774 226.043H175.599ZM182.076 210.825C186.409 207.295 192.793 205.329 201.626 205.329V199.504C192.006 199.504 184.129 201.638 178.396 206.31L182.076 210.825ZM201.626 205.329H220.779V199.504H201.626V205.329ZM223.692 202.416V195.845H217.866V202.416H223.692ZM223.692 195.845C223.692 191.426 222.219 187.657 219.025 184.954L215.263 189.401C216.915 190.799 217.866 192.809 217.866 195.845H223.692ZM219.074 184.996C215.976 182.256 211.907 181.05 207.218 181.05V186.875C210.917 186.875 213.466 187.812 215.214 189.359L219.074 184.996ZM207.218 181.05C202.973 181.05 199.203 181.984 196.096 184.055L199.327 188.902C201.253 187.618 203.821 186.875 207.218 186.875V181.05ZM196.096 184.055C192.931 186.165 190.962 189.146 190.362 192.865L196.113 193.793C196.445 191.733 197.459 190.147 199.327 188.902L196.096 184.055ZM193.238 190.416H176.182V196.242H193.238V190.416ZM179.075 193.663C179.826 187.16 182.693 182.111 187.722 178.319L184.215 173.668C177.873 178.45 174.216 184.958 173.289 192.995L179.075 193.663ZM187.722 178.319C192.79 174.497 199.399 172.475 207.777 172.475V166.65C198.447 166.65 190.517 168.915 184.215 173.668L187.722 178.319ZM207.777 172.475C216.705 172.475 223.355 174.722 228.083 178.88L231.929 174.505C225.846 169.156 217.676 166.65 207.777 166.65V172.475ZM228.123 178.914C232.891 182.955 235.342 188.438 235.342 195.706H241.167C241.167 186.942 238.119 179.75 231.889 174.47L228.123 178.914ZM235.342 195.706V247.852H241.167V195.706H235.342ZM238.254 244.939H221.338V250.765H238.254V244.939ZM224.251 247.852V234.431H218.426V247.852H224.251ZM221.338 231.518H218.542V237.343H221.338V231.518ZM220.883 236.165L223.679 232.39L218.998 228.923L216.202 232.697L220.883 236.165ZM218.426 230.656C218.426 235.516 216.685 239.177 213.228 241.943L216.867 246.491C221.797 242.547 224.251 237.167 224.251 230.656H218.426ZM213.228 241.943C209.688 244.775 204.801 246.337 198.271 246.337V252.163C205.721 252.163 212.018 250.37 216.867 246.491L213.228 241.943ZM204.003 239.021C209.447 239.021 214.157 237.626 217.87 234.588L214.181 230.08C211.743 232.075 208.438 233.196 204.003 233.196V239.021ZM217.837 234.615C221.694 231.552 223.692 227.454 223.692 222.548H217.866C217.866 225.657 216.695 228.083 214.214 230.053L217.837 234.615ZM223.692 222.548V213.181H217.866V222.548H223.692ZM220.779 210.268H201.906V216.093H220.779V210.268ZM201.906 210.268C197.769 210.268 194.153 211.485 191.364 214.152L195.391 218.361C196.89 216.927 198.959 216.093 201.906 216.093V210.268ZM191.364 214.152C188.569 216.826 187.25 220.329 187.25 224.365H193.075C193.075 221.69 193.899 219.788 195.391 218.361L191.364 214.152ZM187.25 224.365C187.25 228.72 188.738 232.446 191.867 235.214L195.727 230.851C194.01 229.332 193.075 227.28 193.075 224.365H187.25ZM191.957 235.291C195.14 237.884 199.262 239.021 204.003 239.021V233.196C200.169 233.196 197.488 232.283 195.637 230.775L191.957 235.291ZM258.052 247.852H255.139V250.765H258.052V247.852ZM258.052 170.961V168.048H255.139V170.961H258.052ZM275.108 170.961H278.02V168.048H275.108V170.961ZM275.108 185.64H272.195V188.552H275.108V185.64ZM279.861 185.64L281.751 187.856L287.764 182.727H279.861V185.64ZM275.108 189.694H272.195V196.006L276.998 191.91L275.108 189.694ZM280.56 174.875L278.554 172.763L278.541 172.776L278.527 172.789L280.56 174.875ZM313.833 177.112L311.656 179.047L311.666 179.058L311.676 179.069L313.833 177.112ZM320.683 247.852V250.765H323.596V247.852H320.683ZM303.208 247.852H300.295V250.765H303.208V247.852ZM299.573 188.436L297.475 190.456L297.475 190.456L299.573 188.436ZM279.162 188.576L277.065 186.554L277.046 186.574L277.028 186.594L279.162 188.576ZM275.527 247.852V250.765H278.44V247.852H275.527ZM260.964 247.852V170.961H255.139V247.852H260.964ZM258.052 173.873H275.108V168.048H258.052V173.873ZM272.195 170.961V185.64H278.02V170.961H272.195ZM275.108 188.552H279.861V182.727H275.108V188.552ZM277.971 183.424L273.218 187.478L276.998 191.91L281.751 187.856L277.971 183.424ZM278.02 189.694C278.02 183.935 279.653 179.825 282.592 176.961L278.527 172.789C274.197 177.008 272.195 182.778 272.195 189.694H278.02ZM282.566 176.987C285.626 174.08 289.918 172.475 295.798 172.475V166.65C288.817 166.65 282.95 168.587 278.554 172.763L282.566 176.987ZM295.798 172.475C302.628 172.475 307.806 174.715 311.656 179.047L316.01 175.177C310.913 169.443 304.067 166.65 295.798 166.65V172.475ZM311.676 179.069C315.644 183.442 317.771 189.439 317.771 197.383H323.596C323.596 188.365 321.155 180.847 315.99 175.155L311.676 179.069ZM317.771 197.383V247.852H323.596V197.383H317.771ZM320.683 244.939H303.208V250.765H320.683V244.939ZM306.12 247.852V199.201H300.295V247.852H306.12ZM306.12 199.201C306.12 194.046 304.772 189.636 301.671 186.416L297.475 190.456C299.22 192.269 300.295 195.036 300.295 199.201H306.12ZM301.671 186.416C298.567 183.192 294.326 181.749 289.367 181.749V187.574C293.17 187.574 295.733 188.647 297.475 190.456L301.671 186.416ZM289.367 181.749C284.446 181.749 280.23 183.272 277.065 186.554L281.258 190.597C283.126 188.66 285.715 187.574 289.367 187.574V181.749ZM277.028 186.594C273.947 189.911 272.614 194.447 272.614 199.76H278.44C278.44 195.379 279.53 192.459 281.296 190.558L277.028 186.594ZM272.614 199.76V247.852H278.44V199.76H272.614ZM275.527 244.939H258.052V250.765H275.527V244.939ZM340.481 247.852H337.568V250.765H340.481V247.852ZM340.481 170.961V168.048H337.568V170.961H340.481ZM357.537 170.961H360.449V168.048H357.537V170.961ZM357.537 185.64H354.624V188.552H357.537V185.64ZM362.29 185.64L364.18 187.856L370.193 182.727H362.29V185.64ZM357.537 189.694H354.624V196.006L359.427 191.91L357.537 189.694ZM362.989 174.875L360.983 172.763L360.97 172.776L360.956 172.789L362.989 174.875ZM396.262 177.112L394.085 179.047L394.095 179.058L394.105 179.069L396.262 177.112ZM403.112 247.852V250.765H406.025V247.852H403.112ZM385.637 247.852H382.724V250.765H385.637V247.852ZM382.002 188.436L379.904 190.456L379.904 190.456L382.002 188.436ZM361.591 188.576L359.494 186.554L359.475 186.574L359.457 186.594L361.591 188.576ZM357.956 247.852V250.765H360.869V247.852H357.956ZM343.393 247.852V170.961H337.568V247.852H343.393ZM340.481 173.873H357.537V168.048H340.481V173.873ZM354.624 170.961V185.64H360.449V170.961H354.624ZM357.537 188.552H362.29V182.727H357.537V188.552ZM360.4 183.424L355.646 187.478L359.427 191.91L364.18 187.856L360.4 183.424ZM360.449 189.694C360.449 183.935 362.082 179.825 365.021 176.961L360.956 172.789C356.626 177.008 354.624 182.778 354.624 189.694H360.449ZM364.995 176.987C368.055 174.08 372.347 172.475 378.227 172.475V166.65C371.246 166.65 365.379 168.587 360.983 172.763L364.995 176.987ZM378.227 172.475C385.057 172.475 390.234 174.715 394.085 179.047L398.439 175.177C393.342 169.443 386.496 166.65 378.227 166.65V172.475ZM394.105 179.069C398.073 183.442 400.2 189.439 400.2 197.383H406.025C406.025 188.365 403.584 180.847 398.419 175.155L394.105 179.069ZM400.2 197.383V247.852H406.025V197.383H400.2ZM403.112 244.939H385.637V250.765H403.112V244.939ZM388.549 247.852V199.201H382.724V247.852H388.549ZM388.549 199.201C388.549 194.046 387.201 189.636 384.1 186.416L379.904 190.456C381.649 192.269 382.724 195.036 382.724 199.201H388.549ZM384.1 186.416C380.996 183.192 376.755 181.749 371.796 181.749V187.574C375.599 187.574 378.162 188.647 379.904 190.456L384.1 186.416ZM371.796 181.749C366.875 181.749 362.659 183.272 359.494 186.554L363.687 190.597C365.555 188.66 368.144 187.574 371.796 187.574V181.749ZM359.457 186.594C356.376 189.911 355.043 194.447 355.043 199.76H360.869C360.869 195.379 361.959 192.459 363.725 190.558L359.457 186.594ZM355.043 199.76V247.852H360.869V199.76H355.043ZM357.956 244.939H340.481V250.765H357.956V244.939ZM437.169 245.475L435.827 248.06L437.169 245.475ZM425.845 234.99L423.317 236.435L423.334 236.466L423.353 236.496L425.845 234.99ZM425.845 183.962L423.339 182.479L423.334 182.487L423.33 182.495L425.845 183.962ZM437.169 173.337L435.827 170.752L435.827 170.752L437.169 173.337ZM471.002 173.337L469.639 175.911L469.649 175.917L469.66 175.922L471.002 173.337ZM482.186 183.962L479.657 185.407L479.675 185.438L479.693 185.468L482.186 183.962ZM486.24 213.6V216.513H489.153V213.6H486.24ZM438.847 213.6V210.688H435.935V213.6H438.847ZM442.762 231.355L440.632 233.343L440.649 233.361L440.666 233.378L442.762 231.355ZM463.872 233.452L465.253 236.017L465.29 235.996L465.327 235.975L463.872 233.452ZM468.485 227.441V224.528H466.211L465.66 226.734L468.485 227.441ZM485.681 227.441L488.539 228.004L489.224 224.528H485.681V227.441ZM475.056 243.378L476.708 245.777L476.716 245.772L475.056 243.378ZM469.324 203.814H466.412V211.404L471.489 205.763L469.324 203.814ZM465.549 187.457L463.353 189.37L463.369 189.388L463.385 189.406L465.549 187.457ZM442.762 187.457L444.923 189.409L444.923 189.409L442.762 187.457ZM438.847 202.696H435.935V205.634L438.873 205.608L438.847 202.696ZM470.582 202.416L472.747 204.365L477.174 199.445L470.557 199.504L470.582 202.416ZM454.225 246.337C448.078 246.337 442.87 245.154 438.512 242.89L435.827 248.06C441.162 250.83 447.324 252.163 454.225 252.163V246.337ZM438.512 242.89C434.118 240.609 430.751 237.478 428.338 233.484L423.353 236.496C426.345 241.45 430.528 245.308 435.827 248.06L438.512 242.89ZM428.374 233.545C426.052 229.481 424.844 224.682 424.844 219.053H419.018C419.018 225.54 420.42 231.365 423.317 236.435L428.374 233.545ZM424.844 219.053V199.76H419.018V219.053H424.844ZM424.844 199.76C424.844 194.129 426.053 189.387 428.361 185.43L423.33 182.495C420.419 187.484 419.018 193.274 419.018 199.76H424.844ZM428.352 185.446C430.769 181.362 434.134 178.195 438.512 175.922L435.827 170.752C430.512 173.512 426.328 177.429 423.339 182.479L428.352 185.446ZM438.512 175.922C442.87 173.659 448.078 172.475 454.225 172.475V166.65C447.324 166.65 441.162 167.982 435.827 170.752L438.512 175.922ZM454.225 172.475C460.274 172.475 465.38 173.657 469.639 175.911L472.364 170.763C467.117 167.985 461.039 166.65 454.225 166.65V172.475ZM469.66 175.922C474.029 178.191 477.336 181.346 479.657 185.407L484.715 182.517C481.816 177.445 477.667 173.516 472.344 170.752L469.66 175.922ZM479.693 185.468C482.08 189.419 483.328 194.147 483.328 199.76H489.153C489.153 193.257 487.697 187.452 484.679 182.456L479.693 185.468ZM483.328 199.76V213.6H489.153V199.76H483.328ZM486.24 210.688H438.847V216.513H486.24V210.688ZM435.935 213.6V219.053H441.76V213.6H435.935ZM435.935 219.053C435.935 224.891 437.344 229.819 440.632 233.343L444.891 229.368C442.96 227.299 441.76 224.026 441.76 219.053H435.935ZM440.666 233.378C444.001 236.833 448.746 238.322 454.365 238.322V232.497C449.733 232.497 446.741 231.284 444.857 229.332L440.666 233.378ZM454.365 238.322C458.57 238.322 462.264 237.626 465.253 236.017L462.491 230.888C460.633 231.888 457.989 232.497 454.365 232.497V238.322ZM465.327 235.975C468.404 234.2 470.458 231.557 471.311 228.147L465.66 226.734C465.207 228.544 464.186 229.908 462.416 230.93L465.327 235.975ZM468.485 230.353H485.681V224.528H468.485V230.353ZM482.823 226.877C481.672 232.718 478.582 237.388 473.396 240.985L476.716 245.772C483.087 241.353 487.081 235.398 488.539 228.004L482.823 226.877ZM473.404 240.979C468.291 244.5 461.951 246.337 454.225 246.337V252.163C462.904 252.163 470.451 250.085 476.708 245.777L473.404 240.979ZM472.237 203.814V199.62H466.412V203.814H472.237ZM472.237 199.62C472.237 193.883 470.879 189.025 467.714 185.509L463.385 189.406C465.253 191.482 466.412 194.732 466.412 199.62H472.237ZM467.746 185.544C464.515 181.835 459.82 180.211 454.225 180.211V186.036C458.697 186.036 461.551 187.301 463.353 189.37L467.746 185.544ZM454.225 180.211C448.625 180.211 443.913 181.837 440.6 185.505L444.923 189.409C446.829 187.299 449.76 186.036 454.225 186.036V180.211ZM440.6 185.505C437.355 189.098 435.935 193.991 435.935 199.76H441.76C441.76 194.903 442.949 191.595 444.923 189.409L440.6 185.505ZM435.935 199.76V202.696H441.76V199.76H435.935ZM438.873 205.608L470.608 205.329L470.557 199.504L438.821 199.783L438.873 205.608ZM468.417 200.468L467.159 201.866L471.489 205.763L472.747 204.365L468.417 200.468ZM507.715 247.852H504.803V250.765H507.715V247.852ZM507.715 170.961V168.048H504.803V170.961H507.715ZM524.212 170.961H527.124V168.048H524.212V170.961ZM524.212 185.64H521.299V188.552H524.212V185.64ZM528.546 185.64L531.067 187.098L533.594 182.727H528.546V185.64ZM523.373 194.587H520.461V205.444L525.895 196.045L523.373 194.587ZM528.965 175.854L526.788 173.919L526.788 173.919L528.965 175.854ZM565.034 177.252L562.899 179.232L562.899 179.232L565.034 177.252ZM572.164 204.094V207.006H575.077V204.094H572.164ZM553.85 204.094H550.938V207.006H553.85V204.094ZM549.936 188.296L547.804 190.281L547.822 190.3L547.84 190.319L549.936 188.296ZM528.825 188.296L526.694 186.311L526.675 186.331L526.657 186.352L528.825 188.296ZM525.191 247.852V250.765H528.103V247.852H525.191ZM510.628 247.852V170.961H504.803V247.852H510.628ZM507.715 173.873H524.212V168.048H507.715V173.873ZM521.299 170.961V185.64H527.124V170.961H521.299ZM524.212 188.552H528.546V182.727H524.212V188.552ZM526.024 184.182L520.852 193.129L525.895 196.045L531.067 187.098L526.024 184.182ZM526.286 194.587C526.286 186.672 528.07 181.244 531.142 177.789L526.788 173.919C522.404 178.851 520.461 185.912 520.461 194.587H526.286ZM531.142 177.789C534.165 174.388 538.763 172.475 545.462 172.475V166.65C537.622 166.65 531.222 168.931 526.788 173.919L531.142 177.789ZM545.462 172.475C553.111 172.475 558.799 174.811 562.899 179.232L567.17 175.271C561.763 169.44 554.403 166.65 545.462 166.65V172.475ZM562.899 179.232C567.02 183.676 569.252 189.973 569.252 198.502H575.077C575.077 188.949 572.556 181.079 567.17 175.271L562.899 179.232ZM569.252 198.502V204.094H575.077V198.502H569.252ZM572.164 201.181H553.85V207.006H572.164V201.181ZM556.763 204.094V199.76H550.938V204.094H556.763ZM556.763 199.76C556.763 194.311 555.314 189.673 552.031 186.273L547.84 190.319C549.777 192.325 550.938 195.33 550.938 199.76H556.763ZM552.067 186.311C548.886 182.894 544.548 181.329 539.45 181.329V187.154C543.3 187.154 545.953 188.292 547.804 190.281L552.067 186.311ZM539.45 181.329C534.28 181.329 529.887 182.882 526.694 186.311L530.957 190.281C532.797 188.305 535.487 187.154 539.45 187.154V181.329ZM526.657 186.352C523.605 189.756 522.278 194.364 522.278 199.76H528.103C528.103 195.277 529.199 192.242 530.994 190.24L526.657 186.352ZM522.278 199.76V247.852H528.103V199.76H522.278ZM525.191 244.939H507.715V250.765H525.191V244.939Z" fill="white"/>
<path d="M604.355 99.0269C604.355 124.083 584.673 144.171 560.667 144.171C536.66 144.171 516.978 124.083 516.978 99.0269C516.978 73.9703 536.66 53.8823 560.667 53.8823C584.673 53.8823 604.355 73.9703 604.355 99.0269Z" fill="white" stroke="#BFC0C0" stroke-width="8.73767"/>
</svg>
